<svg xmlns="http://www.w3.org/2000/svg" viewBox="423.8 738.2 6177.6 5785.4">
  <g id="spirale">
  <path d="M1118.5,2994.46c-6.88-23.73,2.07-45.87,9.06-67.34,7.15-21.97,17.24-41.97,2.45-64.98-5.74-8.94.78-15.46,10.51-21.16,34.74-20.38,67.05-39.49,51.37-92.85-5.86-19.94,10.35-47.3-3.66-71.58-2.19-3.8,3.01-17.42,6.21-17.95,42.33-6.96,41.93-47.07,57.22-74,8.93-15.72,15.52-15.53,32.02-3.41-31.26-40.29,1.78-66.69,13.63-97.11,3.37-8.64.85-15.27-3.42-22.61-4.39-7.54-5.15-19.44,3.18-21.09,54.9-10.89,40.53-66.93,67.34-95.68,6.7-9.44,18.08-.01,28.85-6.48,0-14.52,2.68-30.51-.63-45.14-4.88-21.56-3.91-29.41,21.81-38.1,15.28-5.16,61.08-6.11,44.92-52.66-4.89-14.08,23.79-30.9,14.22-52.56,46.95-22.04,67.83-57.36,75.73-128.57-38.15,20.62-65.79,49.52-91.33,81.29-69.71,86.73-138.55,174.14-196.47,269.35-79.22,130.23-154.64,262.33-215.54,402.68-55.22,127.26-109.78,254.58-153.91,386.17-9.07,27.06-19.05,53.85-27.09,81.21-4.44,15.11-10.21,27.5-31.39,34.32-5.75-49.17,18.32-91.53,20.49-137.59-94.27,190.12-156.8,390.25-197.11,597.82-40.26,207.34-52.02,417.69-60.75,627.01-19.36,3.04-23.33-6.62-22.21-15.54,11.82-93.27-.09-187.04,6.42-280.75,3.1-44.56,18.34-89.77,7.12-135.48-2.69-10.97,7.12-19.22,8.81-29.15,10.19-59.75,19.48-119.65,29.59-179.41,11.17-66.06,20.95-132.04,41.2-196.69,18.1-57.82,34.51-116.23,53.73-173.81,45.01-134.86,97.43-266.63,155-396.67,23.48-53.03,36.34-110.41,63.59-162.81,73.72-141.72,154.01-279.43,238.25-415.13,69.29-111.62,152.8-211.83,234.69-313.83,101.8-126.8,214.39-242.83,334.26-352.13,189.17-172.48,398.19-315.31,633.31-417.95,46.54-20.32,83.3-56.59,131.01-74.1,3.9-1.43,8.38-5.76,9.48-9.63,16.47-57.83,71.91-68.25,114.58-93.57,15.77-9.36,26.64-18.72,31.99-37.26,7.65-26.55,21.37-41.89,53.77-52.13,42.87-13.55,86.82-28.76,128.37-47.61,45.52-20.66,94.41-26.65,142.06-36.43,81.77-16.78,164.6-28.55,247.22-40.87,31.62-4.72,63.83-5.9,95.84-7.44,128.27-6.2,256.5-10.77,384.93-2.08,68.81,4.66,136.82,17.49,205.34,21.41,81.75,4.68,160.57,25.46,241.21,35.87,101.4,13.09,203.96,15.2,304.59,37.51,170.06,37.71,338.11,81.95,501.87,141.12,85.2,30.79,171.41,61.41,251.36,103.2,55.64,29.09,117.87,46.68,166.29,93.53,20.23,19.57,55.03,29.69,81.75,48.97,20.2,14.58,32.22,34.55,50.5,49.54,75.28,61.72,149.88,124.48,218.47,193.56,37.8,38.07,72.82,79.68,103.68,123.51,13.47,19.13,10.36,47.59,26.82,69.67,38.69,51.89,73.93,106.39,109.66,160.43,13.65,20.65,27.08,40.47,26.5,68.78-.75,36.44,29.75,60.73,57.59,50.1,6.98,12.31,18.19,22.82,4.89,39.13-7.15,8.78,3.43,16.76,5.53,25.22,6.18,24.88,33.24,43.35,22.52,73.4-.37,1.04-.59,3.09-.16,3.32,66.6,35.69,20.87,106.6,48.13,155.29,8.09,14.44,13.89,32.84,10.81,52.73-2.18,14.13,10.55,28.44,23.51,30.8,34.94,6.36,22.95,22.25,10.31,39.15,5.8,10.57,23.75,7.81,23.25,23.46-26.78,18.16-30.28,44.32,4.55,76.98,33.68,31.57,23.89,71.42,33.52,106.8,4.25,15.62-1.2,38.19.8,57.07,1.7,16.01-3.83,26.46-18.33,36.82,32.45,17.64,26.47,47.73,32.26,73.85,11.2,50.57,30.56,98.55,47.68,147.33,21.06,60.02,41.97,120.77,40.57,186-.05,2.29-.48,5.19.67,6.78,42.75,59.02,24.06,131.18,42.11,195.39,3.99,14.2,10.2,28.05,17.3,41.02,4.55,8.29,10.64,16.61,8.37,25.52-14.61,57.26,11.26,112.89,6.49,168.95-2.88,33.88,25.07,57.43,21.4,88.65-6.15,52.31-2.36,104.92-7.72,157.47-3.28,32.13.94,65.56-3.29,98.8-1.78,13.94,3.87,28.79-5.17,42.61-2.97,4.53-5.82,11.71-4.32,16.22,21.29,64.05-19.41,119.19-25.09,179.22-15.54,164.3-69.91,318.78-121.33,473.75-17.59,53-44.2,103.03-67.3,154.14-7.57,16.74-17.78,31.96-10.62,52.1,3.81,10.71-3.15,20.46-10.99,27.4-45.29,40.11-66.63,92.95-81.02,149.73-6.12,24.12-23.93,41.78-36.9,61.8-68.53,105.7-132.04,216.24-222.14,304.85-39.88,39.22-77.38,81.56-118.07,120.28-44.92,42.74-90.08,86.12-135.1,129.13-93.29,89.12-198.46,163.6-305.32,235.12-61.43,41.11-124.56,81.85-191.95,111.19-55.89,24.33-107.03,57.8-168.9,73.15-79.14,19.64-153.15,59.46-230.03,88.85-31.45,12.03-64.58,19.69-97.06,28.94-5.4,1.54-12.19-.59-16.96,1.75-98.67,48.53-209.08,47.05-313.18,72.65-161.93,39.83-327.45,59.08-494.74,47.07-37.11-2.66-75.59-11.78-111.62-12.77-41.41-1.14-82.8-4.59-123.94-7.66-51.44-3.83-102.52-12.84-153.64-20.36-12.31-1.81-24.99-4.65-33.59-15.65-4.41-5.64-10.69-9.93-17.84-8.95-85.76,11.76-160.86-29.56-239.87-49.53-215.02-54.37-411.73-151.03-594.46-274.92-108.78-73.75-230.57-123.89-339.34-197.18-71.51-48.18-140.17-99.71-205.97-155.39-50.81-42.99-97.45-93.17-152.6-127.66-27.71-17.33-56.46-48.29-100.38-45.97-25.56,1.35-46.44-29.9-62.42-50.19-28.02-35.56-57.98-72.11-68.06-118.61-4.62-21.3-28.6-23.39-37.16-42.25-23.12-51-54.92-98.64-73.12-151.13-20.51-59.17-53.25-111.62-77.96-168.24-37.74-86.46-71.12-174.46-102.94-263.26-9.68-27-5.9-64.37-41-79.85-2.41-1.06-3.42-8.33-2.94-12.46,7.26-62.42-2.67-121.2-35.44-175.56-2.81-4.66-6.06-12.76-4-16.11,28.05-45.63-19.59-91.29.48-136.95,3.3-7.51-2.27-14.12-11.21-18.37-14.71-7-18.37-23.16-13.88-35.65,22.41-62.34,6.14-118.26-23.97-172.94-3.69-6.69-4.91-15.53-4.83-23.36.25-24.91-3.81-47.71-25.3-61.55,5.61-33.37,44.5-18.48,56.22-44.33-15.94-21.96-42.72-36.2-47.25-68.13-2.64-18.61-12.51-33.83-1.98-54.77,10.57-21.02-12.35-40.18-25.18-39.79-22.91.69-23.2-11.33-23.07-24.42.17-17.94-15.3-21.19-23.86-31.01-10.49-12.04-21.31-25.48,4.75-32.43,26-6.93,17.79-29.34,19.65-45.81,2.11-18.62-13.68-16.57-26.41-18.12-15.94-1.94-22.34-13.26-25.06-28.55-7.06-39.57,1.53-78.65,10.73-115.61,4.41-17.72,28.35-32.8,42.26-50.32,6.6-8.32,13.63-14.83,13.76-26.69-14.26-11.75-31.68.75-48.86-8.1-10.54-17.3,1.14-34.91,4.09-52.84,21.77-.97,31.57,43.88,58.11,9.22,18.86,23.67,12.13,46.98,8.13,70.32-3.29,19.16-14.99,48.2,11.85,51.46,25.27,3.07,13.83-27.4,16.51-43.34,2.51-14.91,13.22-33.61-8.86-36.85,35.14-59.01,36.37-116.92,16.07-177.84-10.77,1.52-9.05,18.68-28.31,16.79,16.43-31.22-34.05-65.34,12.15-95.34-17.45-9.54-31.8-3.82-46.94,4.72-14.55-35.73,14.09-59.39,22.05-87.63,4.51,7.96-2.83,20.58,11.83,21.66,11.28.83,15.34-7.46,17.46-17.08,1.66-7.52,6.48-15.9-3.43-20.85-13.29-6.64-16.81,7.65-24.71,12.59M2189.51,5001.88c7.67,55.49,83.9,123.99,127.83,108.7-35.52-27.16-64.59-57.49-92.81-88.67-9.93-10.98-19.61-22.76-38.19-29.12-20.2-31.76-42.93-61.29-72.64-85.55-7.36,9.91,6.26,23.33-9.21,28.73-29.67-11.04-61.17-19.37-62.89-61.11-.42-10.25-8.81-21.55-16.3-29.87-26.07-28.94-41.24-61.49-54.17-99.08-16.77-48.78-38.32-97.92-70.06-140.62-4.72-6.35-8.92-13.72-11.04-21.26-26.75-94.88-81.92-177.84-113.36-270.76-2.42-7.14-7.53-14.92-19.27-10.29-10.55,55.37,16.07,105.21,27.45,156.85,14.99,68,33.3,135.61,57.3,201.34,2.28,6.25,4.18,14.54,1.96,20.2-10.67,27.31-1.13,52.59,7.68,77.1,34.54,96.15,76.29,189.53,123.1,280.02,59.04,114.13,141.39,211.8,233.67,300.96,7.37,7.12,18.92,14.16,14.97,25.16-8.74,24.36,8.72,37.14,21.09,50.55,131.99,143.03,269.77,279.69,430.96,390.66,20.89,14.38,40.29,32.2,50.59,56.09-11.43,12.58-21.09,6.65-30.06,2.01-39.75-20.55-82.65-36.89-118.37-63.02-192.66-140.9-355.17-312.46-500.65-500.9-71.36-92.43-132.3-192.4-209.97-280.45-59.17-67.08-115.89-136.76-157.88-217.13-21.53-41.21-48.62-79.51-73.2-119.12-3.06.15-6.13.31-9.19.46-9.9,35.35-17.51,71.23-18.21,108.65-.04,1.94,1.95,4.2,3.5,5.83,17.51,18.39,13.6,38.33,8.37,60.9-8.3,35.83-15.36,72.4,28.13,95.65,22.34,11.94,16.41,31.38-1.1,44.47-18.46,13.8-15.8,32.09-2.09,39.98,30.33,17.46,35.45,41.48,31.97,72.27-.81,7.15,5.22,14.98,7.72,22.62,7.44,22.74,14.69,45.53,21.7,67.31-23.38,19.9-18.53-7.66-25.63-12.64-9.1.94-17.34,7.93-13.29,12.85,19.23,23.35-5.61,80.6,55.03,72.56,3.74-.5,9.53,6.18,12.66,10.71,14.51,20.95,26.86,46.39,26.65,69.23-.29,31.64,15.71,52.94,35.92,64.08,43.09,23.75,70.05,62.96,103.45,95.47,41.61,40.5,79.38,83.88,142.94,86.58,6.44-33.57-15.93-50.34-40.77-65.08-9.39-5.57-22.41-15.18-13.64-22.41,15.99-13.18-.26-27.24,5.29-42.68,8.23,7.54,14.67,12.28,19.69,18.22,47.82,56.62,90.56,117.97,152,161.84,3.58,2.56,6.65,6.71,8.43,10.79,15.03,34.47,38.93,57.16,77.06,65.44,11.27,2.45,25.81,3.8,33.71,15.17,56.37,81.08,141.97,125.12,224.37,170.81,97.61,54.13,205.65,83.97,311.94,117.05,74.37,23.15,149.52,46.26,226.44,54.13,91.69,9.38,182.05,31.16,275.33,28.89,29.55-.72,60.87-7.7,91.16,6.8,17.47,8.36,38.29,12.91,53.74-11.85,6.69-10.72,25.38-7.24,38.9-1.81,9.54,3.84,19.86,11,29.59,5.97,33.58-17.37,70.96,2.82,104.86-12.07,10.5-4.61,22.42,1.07,33.55,4.48,27.01,8.27,51.88,6.55,79.28-5.71,27.49-12.3,58.01-37.38,90.72-7,2.04,1.9,10.04.67,12.66-1.83,39.28-37.49,93.47-29.1,139.97-43.35,40.14-12.3,85.64-7.46,128.81-9.33,10.58-.46,18.05-3.41,21.32-13.44,4.16-12.79-5.28-15.82-14.47-18.49-5.51-1.6-11.07-3.64-16.72-4.05-52.44-3.78-101.89-26.59-155.73-23.3-13.03.8-28.94-4.11-42.63-19.95,27.64-3.53,53.56-14.45,74.07-8.05,63.14,19.69,126.26.5,188.47,6.99,67.32,7.02,131.69,3.14,196.53-16.36,18.8-5.65,41.78-.28,58.22-14.99,15.58-13.93,34.15-19.04,53.38-22,18.58-2.86,32.8-11.83,48.89-20.96,24.76-14.07,45.57-42.92,71.74-43.63,62.93-1.72,100.42-52.47,154.82-70.85,39.47-13.33,76.97-38.61,114.96-58.9,74.44-39.77,143.69-89.29,214.94-135.01,15.54-9.97,11.49-22.68,4.09-35.33-14.03-3.28-24.8,2.97-36.72,7.54-43.32,16.61-74.39,51.63-112.51,76-73.37,46.91-154.58,75.72-232.01,111.28-96.82,44.46-198.07,81.6-305.91,98.69-72.1,11.42-143.39,32.09-215.77,42.77-110.7,16.34-220.63,34.66-334.49,32.4-119.03-2.36-238.29,7.16-357.67-3.5-101.98-9.1-202.73-25.66-303.49-42.55-109.13-18.3-215.42-47.86-316.63-92.46-33.11-14.59-70.15-25.94-100.83-57.92,22.91-2.57,36.75,5.91,51.14,11.67,26.66,10.66,52.8,22.77,79.89,32.15,102.18,35.39,207.02,58.54,313.64,77.8,100.68,18.19,201.87,30.58,303.18,37.43,175.85,11.9,351.39.61,525.95-26.19,144.35-22.16,286.75-51.79,424.57-100.58,106.03-37.54,210.69-77.86,312.06-127.8,80.5-39.66,161.59-77.95,235.42-128.65,119.45-82.03,230.6-174.85,333.24-277.22,60.12-59.97,126.67-115.13,175.25-184.68,49.09-70.29,102.56-138.09,142.47-214.83,16.59-31.91,30.97-63.31,35.62-99.57,9.35-72.86,22.47-145.25,31.1-218.17,5.09-42.98,16.15-85.84,9.48-130.42-13.22,39.06-28.48,76.85-47.11,112.71-18.62,35.84-22.42,83.2-70.5,98.72-10.67,3.44-16.63,12.17-13.36,24.58,2.94,11.16-3.6,19.32-7.78,28.85-18.4,42-61.47,71.09-62.81,122.38-.25,9.74-9.46,19.97-19.52,22.08-8.8-3.5,3.44-12.97-8-13.39-10.24,10.06-17.74,22.07-18.52,36.08-1.31,23.49-4.64,41.14-35.93,35.25-11.4-2.14-24.86,6.78-15.79,21.5,11.81,19.15-.65,27.47-12.28,36.81-19.95,16.02-39.36,32.12-43.47,59.65-5.23,35.05-36.82,57.51-60.06,63.53-40.76,10.56-56.89,40.68-78.1,66.97-11.81,14.65-20.78,22.73-39.9,29.56-33.33,11.91-51.76,47.85-76.58,72.9-20.62,20.81-37.19,46.24-63.13,61.65-72.93,43.35-144.51,89.49-220.01,127.87-86.58,44.01-172.73,89.51-265.13,121.67-48.39,16.84-94.92,34.13-147.32,39.89-59.1,6.49-116.59,27.98-174.64,43.44-58.3,15.52-118.08,17.15-177.72,18.8-124.09,3.44-244.7,34.06-367.83,45.52-84.59,7.88-168.69,6.3-253.2,3.19-60.14-2.21-117.53-17.97-176.17-27.85-133.92-22.56-259.45-69.54-385.08-117.63-41.76-15.98-79.71-56.38-129.91-17.81-13.19,10.13-33.8-4.22-50.06,7.95,60.49,61.35,144.72,86.97,210.02,141.95-13.33,11.24-21.64,2.65-30.88-.4-114.46-37.75-197.76-133.95-314.41-167.58-3.08-.89-5.38-4.24-8.22-6.18-111.67-76.16-204.4-174.25-302.38-265.85-28.12-26.29-77.7-46.08-66.74-101.34.46-2.3-3.01-6.89-5.68-8.05-24.32-10.58-30.19-44.64-61.35-47.14-9.44-.76-10.35-11.14-9.3-19.61,3.86-31.19,24.3-19.4,41.88-10.43M4471.93,5304.9c49.86-3.73,99.3-12.57,141.26-40.18,81.43-53.58,163.49-106.9,240.01-167.04,75.42-59.27,147.44-123.73,215.03-191.79,50.34-50.7,109.74-89.52,155.98-147.16,112.55-140.27,197.48-295.33,256.63-462.09,45.94-129.53,53.25-270.07,60.29-407.41,8.77-171.02,3.78-341.99-18.66-512.64-27.63-210.08-74.53-412.93-176.33-601.3-68.41-126.6-135.58-253.59-226.06-366.25-90.96-113.26-199.07-210.45-297.57-316.56-32.15-34.63-86.15-47.18-99.36-103.33-3.81-16.21-35.43-34.99-55.47-36.44-47.53-3.43-73.93-28.36-97.81-65.2-9.21-14.2-20.48-29.84-37.14-39.71-103.31-61.15-215.45-101.42-328.32-139.97-8.48-2.9-18.25-1.76-27.22-3.54-82.52-16.37-166.56-19.5-250.01-24.28-94-5.39-188.58-4.75-282.75-1.7-80.15,2.6-160.04,12.64-240.09,18.81-62.92,4.85-124.85,15.91-186.83,27.22-95.07,17.34-186.83,47.45-280.15,71.52-23.82,6.14-54.07,6.72-70.08,19.12-32.48,25.15-70.73,18.45-103.79,34,31.36-26.89,66.84-44.02,104.32-60.3,102.7-44.63,209.21-76.74,316.57-106.81,9.85-2.76,27-14.01,25.09,15.04,22.4-20.18,49.04-6.55,73.29-14.93,79.79-27.57,164.87-24.62,247.25-34.67,82.82-10.11,167.71-22.64,252.37-8.34,9.92,1.68,20.83.27,30.83-1.83,40.2-8.44,80.05-5.93,119.64,2.96,32.91,7.39,39.62,7.21,81.09-11.23-59.07-13.94-110.78-33.81-163.46-36.85-87.95-5.07-176.26-7.31-264.92-.32-182.77,14.4-362.1,41.59-535.64,103.99-117.8,42.36-232.9,89.72-340.4,153.95-46.92,28.03-93.62,57.32-138.12,88.47-102.2,71.55-193.44,156.33-275.88,250.76-129.89,148.77-247.31,305.46-326.02,488.15-93.05,215.98-170.83,436.33-196.84,672.16-9.96,90.28-18.9,180.62-22.04,271.29-3.19,92.22,8.97,183.96,17.5,275.58,5.69,61.09,19.12,121.45,29.17,182.13,20.15,121.71,50.05,239.95,109.78,349.68,102.65,188.59,235.74,353.14,386.26,505.1,157.59,159.1,342.3,279.18,544.13,371.35,146.11,66.72,297.54,122.41,452.45,166.71,82.82,23.69,166.5,45.11,253.24,47.89,168.07,5.39,335.52-.68,500.79-35.07,39.09-8.13,81.24-9.05,115.43-31.93,76.57-51.23,158.5-92.41,240.31-134.02,21.2-10.78,43.01-15.53,72.25-13M5638.28,5514.71c14.66-14.49,31.62-27.31,43.56-43.78,43.13-59.5,97.24-109.53,141.03-168.73,41.52-56.13,84.17-111.56,120.68-170.86,59.76-97.08,122.81-191.87,168.62-297.75,41.44-95.77,82.66-191.62,111.2-291.47,19.64-68.73,39.49-137.8,53.4-208.84,19.69-100.55,30.89-201.5,39.03-302.85,11.78-146.63,8.61-293.54-9.87-439.7-4.33-34.25-10.26-68.89-27.84-103.15-14.05,17.34-22.99,35.91-18.91,48.4,11.47,35.17-30.14,65.59-6,100.17,1.11,1.58-1.68,6.42-3.36,9.33-17.83,30.85-13.75,68.69-31.96,99.69-3.34,5.69-2.95,18.58,1.18,22.8,20.06,20.54,12.92,41.14,1.87,60.65,31.93,36.6,29.61,46.26-21.31,89.79,26.56,12.98,46.68,28.54,9.82,51.4,6.49,20.07,20.32,36.2,15.16,56.41-8.82,10.65-22.99-4.92-31.85,7.91,14.49,4.23,32.75,7.11,26.84,27.12-5.66,19.15-20.33,6.53-31.68,4.73-11.36-1.8-24.17-4.39-31.14,7.75-6.52,11.35,1.17,23.71,1.49,34.5,1.23,40.62,9.3,79.09,21.5,117.27.56,1.74-1.81,4.22-2.1,6.45-3.29,25.6-16.48,46.39-31.23,67.78-18.36-8.06-41.97-16.54-39.05,13.71,3.32,34.34-5.28,62.44-22.75,90-4.36,6.87-8.36,15.55-4.62,22.93,14.29,28.22,4.7,54.4-1.1,82.71-4.5,21.95-18.99,36.12-26.82,54.82-53.01,126.61-104.34,253.97-169.76,374.99-82.73,153.05-182.97,293.8-296.93,424.98-110.59,127.3-237.85,236.7-373.39,335.7-126.52,92.41-266.82,162.02-410.34,224.32-61.06,26.51-123.98,48.69-189.29,63.04-65.35,14.35-133.56,10.36-198.01,31.05-9.55,3.06-20.64,3.31-30.76,2.27-46.43-4.75-91.79,4.24-133.91,20-85.59,32.04-175.74,43.37-263.23,66.19-40.79,10.64-80.13,2.5-119.86,2.73-39.76.24-66.77,31.78-106.14,33.57-18.74.85-33.67-16.07-51.56-5.89-22.93,13.04-48.27,12.78-73.42,14.32-88.37,5.42-176.71,5.36-265.14.86-102.18-5.2-203.68-16.35-304.54-33.08-63.06-10.46-125.76-23.11-194.09-35.79,26.32,34.62,71.03,30.38,93.65,60.2.99,1.31,4.58,1.57,6.61,1.02,35-9.42,63.03,11.18,94.46,18.8,85.81,20.82,167.43,59.36,258.59,60.38,30.31.34,65.05,1.52,92.06,21.22,13.65,9.95,25.5,12.19,41.39,8.59,12.01-2.72,25.4-2.84,37.59-.73,221.58,38.43,444,32.74,666.36,10.58,29.49-2.94,59.46-.05,88.67-7.68,43.94-11.48,87.82-24.21,132.53-31.45,61.11-9.9,124.41-20.4,179.93-41.7,94.96-36.42,191.35-71.51,282.96-117.09,69.8-34.73,141.49-66.84,209.28-104.19,66.35-36.55,129.76-80.73,193.76-122.63,140.76-92.16,269.49-198.37,388.71-323.81M5856.82,4005.51c-5.85,42.08-11.3,84.22-17.62,126.24-20.68,137.44-41.72,274.84-62.51,412.27-1.83,12.13-.69,23.79,7.67,35.42,34.45-58.51,49.27-120.39,65.89-182.54,14.15-52.93,23.56-108.16,46.56-157.85,10.03-21.67,10.89-51.32,44.26-71.28,13.14,44.46,31.23,82.85,26.6,128.54,14.15-4.67,15.11-14.43,17.98-22.91,27.11-80.06,40.26-163.55,58.72-245.66,8.96-39.86,8.32-82.03,10.4-123.24,1.45-28.69,15.49-55.62,3.44-86.93-6.13-15.92,1.01-38.71,10.15-58.49,17.33-37.51,1.02-76.2,1.22-121.16-16.15,11.7-16.1,32.63-32.99,26.49-18.92-6.89-3.44-21.52-5.81-32.02-5.16-22.94,1.88-35.03,25.11-39.2,9.08-1.63,13.29-8.57,8.85-18.29-5.38-5.72-12.42-5.02-19.3-5.05-15.06-.06-34.88.73-33.99-18.75.69-14.96,12.97-28.22,34.62-21.57,13.4,4.11,19.84-8.17,18.18-18.74-5.87-37.31,8.81-75.62-3.95-111.9-17.03-48.41-5.13-106.22-48.93-146.23-10.58-9.66-15.81-25.17-8.21-41.36,8.56,2.84,18.14,8.58,23.79-2.53,5.82-11.42-2.95-15.94-11.73-20.53-23.38-12.22-25.96-28.56-3.22-42.44,12.1-7.38,8.27-15.6,6.91-23.23-6.04-33.89-12.11-67.87-20.76-101.14-3.75-14.42-13.49-37.75-27.97-32.21-21.07,8.06-24.84-11.88-36.79-13.91-10.82,4.71-10.23,19.76-22.76,20.84-8.37-1.06-13.09-7.17-12.58-14.1,1.75-23.76,33.95-19.86,35.88-45.1,12.45,13.3,22.5,21.93,38.33,25.58-.24-18.41-3.61-34.48-7.69-51.36-8.19-33.9-33.06-61.01-37.94-95.19-5.51-38.61-44.54-60.59-46.51-100.53-.4-8.14-7.95-5.39-15.52-4.77-17.09,1.4-24.09-15.89-15.02-24.82,39.17-38.56-1.52-50.62-18.2-72.11-13.09,8.47-14.18,18.99-10.51,28.89,22.72,61.31,1.9,131.31,39.7,190.39,8.39,13.11,11.59,28.2,27.2,36.57,24.37,13.06,31.02,35.54,31.32,61.87-20.48-1.96-32.35-16.74-51.46-22.16-3.39,19.25-15.84,31.9-28.4,44.9-15.57,16.12-7.59,37.35-8.58,56.18-1.41,26.82,11.43,51.24,18.31,76.54,45.41,167.18,92.88,333.86,120.34,505.28,3.31,20.69,10.07,36.01,33.49,36.48-1.48,15.58-23.39,8.82-20.84,25.48,4.49,29.39-.54,63.64,16.75,86.69,19.05,25.4,49.37,42.07,13.03,74.87-.49.44,2.17,3.83,2.68,6.01,8.48,36.66,23.42,72.62,9.72,111.5-2.48,7.04-1.13,16.32.91,23.9,10.32,38.26-26.14,69.34-16,107.97,1.82,6.95-9.57,11.05-17.53,13.92-10.16,3.67-22.85,1.86-33.02,15.82,38.21-.54,39.72,20.77,31.76,47.8-3.67,12.47-2.94,24.9,1.89,37.2,2.81,7.16.9,13.68-6.07,17.74-7.03,4.09-16.41,2.64-18.02-3.65-8.04-31.4-44.39-61.05-26.74-91.29,18.05-30.91,5.62-76.54,47.55-95.52,9.47-4.29,5.81-19.07,1.47-28.66-17.03-37.59-17.27-75.49-7.26-115.22,5.92-23.5,14.84-51.58-25.03-60.08,13.55-13.78,36.01-20.74,18.29-42.44-8.9-1.25-3.81,13.6-13.34,11.61-26.43-29.06-26.12-30.57,11.25-52.33-13.64-32.75-10.34-69.18-20.77-104.04-16.44,4.61-31.63,8.87-47.93,13.44,0,8.4-1.35,15.5.21,21.89,14.23,58.26-13.47,115.92-2.39,174.16.95,4.97-1.73,11.66-4.75,16.2-31.86,47.86-28.04,104.99-41.82,163.87M3802.4,1208.41c40.2,10.67,82.48,6.09,122.54,14.91,89.19,19.64,180.53,23.4,270.11,39.57,7.84,1.41,17.26,3.96,23.8,1.09,57.34-25.18,117.28,18.82,174.28-7.2,41.71,21.27,87.94,11.44,131.82,18.51,98.2,15.82,197.18,26.82,295.91,39.26,11.75,1.48,25.27,6,34.47-6.66-.3-10.09-6.88-14.96-14.27-18.35-37.67-17.29-70.89-42.14-106.74-62.38-85.01-48-172.15-92.1-263.22-127.53-61.94-24.1-122.32-57.88-188.62-63.63-102.48-8.88-205.99-6.02-308.6,1.87-157.79,12.13-313.93,38.12-469.73,65.54-10.64,1.87-22.35,2.51-31.54,19.32,80.56,2.13,149.43,47.51,228.51,38.85,75.04-8.22,150.14-9.87,231.49-11.53-15.84,21.53-32.67,23-46.23,30.45-26.93,14.79-58.76,8.98-83.98,27.92M1511.62,4311.44c9.71,28.43,13.04,60.31,42.05,80.5,11.49-12.47,21.91-26.71,20.16-39.75-6.51-48.52,1.74-95.14,9.61-142.48,5.41-32.54,11.33-67.07,6.07-98.9-12.02-72.77,10.15-143.72,1.97-217.77-7.62-68.99,4.22-143.11-1.18-213.92-4.95-64.9,15.72-126.34,11.23-190.47-4.45-63.65,18.71-125.12,17.97-190.06-.49-43.53,6.71-89.88,30.26-135.35,25.99-50.19,20.7-115.34,39.72-171.9,3.22-9.58-3.61-20.56-16.24-22.6-10.68-1.73-17.27,4.3-21.57,13.46-3.9,8.31-8.41,16.38-11.71,24.93-22.92,59.47-45.66,118.91-66.5,179.26-32.01,92.7-59.83,186.5-86.15,280.73-31.83,113.94-50.11,230.9-66.81,347.86-7.61,53.29-8.65,109.18,4.29,160.31,12.58,49.72,19.8,100.44,32.59,150.09,15.69,60.96,29.15,122.34,54.24,186.06M1538.19,2932.79c-69.84,207.1-115.39,418.85-129.94,643.41,22.32-13.94,24.69-28.46,27.61-43.29,6.58-33.42,9.05-67.23,18.88-100.52,28.19-95.5,46.64-194.21,79.7-287.85,45.19-128.03,100.11-252.62,154.68-377.14,22.97-52.41,58.39-101.98,45.98-165.09-1.67-8.52,4.35-21.38,10.96-28.21,32.34-33.38,46.4-75.95,62.99-117.5,3.7-9.27,12.61-26.09,17.4-22.9,26.99,17.98,24.72-10.54,30.7-19.38,11.44-16.9,24.62-32.32,36.36-48.16,14.97-20.2,38.43-38,43.18-62.95,5.45-28.61,10.21-52.99,40.68-65.59,12.12-5.01,15.54-19.98,15.01-32.93-1.1-27.03,10.09-48.66,25.72-69.52,12.32-16.45,37.28-30.42,40.4-43.37,13.98-57.97,75.91-74.62,97.94-124.6,13.75-31.19,45.42-52.07,62.1-80.95,39.56-68.5,88.22-126.19,155.29-169.17,21.26-13.62,45.16-28.17,51.52-57.58,2.21-10.24,12.44-17.08,22.48-20,34.97-10.16,47.7-39.2,62.47-67.84-9.26-5.03-21.51-14.17-22.68-1.37-2.27,24.74-22.89,26.51-36.68,36.17-19.19,13.44-55.73,15.13-62.1,26.06-30.19,51.78-88.62,69.17-124.13,112.75-16.4,20.13-29.34,45.48-55.69,54.5-31.61,10.82-51.26,38.64-70.58,59.71-62.66,68.34-118.15,143.46-171.14,219.96-98.25,141.83-183.53,290.84-257.93,446.78-62.68,131.37-119.49,264.79-171.17,406.57M5375.08,2636.4c60.96,115.01,111.23,234.54,148.87,359.13,16.23,53.73,33.83,107.34,39.35,163.76,3.39,34.64,3.79,68.74,17.7,102.84,25.02,61.32,23.95,128.39,22.78,193.05-1,55.43-5.71,111.3-3.99,166.62,1.85,59.5.55,118.65-1.79,177.96-2.13,53.93-13.83,107.54-5.75,162.27,15.83-44.49,30.19-89.09,40.08-134.66,25.81-118.9,46.24-238.68,41.19-361.1-2.88-69.71-7.04-139.38-11.81-208.99-5.17-75.52-19.31-149.8-34.88-223.71-17.69-83.95-22.64-169.97-79.2-244.13-50.03-65.6-79.49-145.51-125.29-215.3-16.99-25.89-41.2-42.46-59.24-66.07-30.51-39.94-58.87-82.12-96.66-115.73-14.09-12.53-24.67-25.89-33.81-42.16-25.01-44.57-62.14-76.31-94.7-81.92,96.46,111.24,169.46,234.98,237.15,368.15M5533,4317.52c-24.72,62.81-49.35,125.65-61.4,194.49,13.77-3.87,19.17,13.68,34.87,7.96-19.4-57.61,39.15-82.82,49.5-128.17,30.94,5.66,57.61-12.55,50.65-36.08-7.89-26.67,3.84-47.74,16.09-63.79,22.94-30.04,34.54-64.32,50.55-97.15,11.32-23.21,11.39-48.64,21.16-72.22,21.59-52.1,45.67-102.71,61.07-158.07,39.31-141.33,57.45-283.02,35.3-428.7-2.26-14.83-1.37-31.43-20.4-47.72-26.93,144.99-65.65,281.45-103.87,418.06-38.39,137.25-83.61,272.25-133.53,411.39M3565.29,946.45c-19.31,2.59-38.62,5.26-57.94,7.76-72.53,9.39-146.65,12.22-217.25,29.49-127.97,31.31-252.23,76.24-376.01,121.55-32.58,11.93-63.63,28.02-98.05,43.39,14.18,9.93,24.08,4.29,33.9,3.73,40.03-2.31,79.08-12.92,118.59-16.61,120.93-11.28,241.64-20.86,358.58-57.79,92.73-29.28,186.65-55.09,282.78-70.85,46.01-7.54,92.81-10.15,139.08-16.29,47.41-6.3,94.73-13.46,141.81-21.83,14.03-2.49,31.23,7.32,47.35-11.34-42.8-7.61-81-10.7-119.7-12.72-82.72-4.31-165.25,1.14-253.17,1.5M4853.22,1134.98c-36.44-10.42-72.57-22.14-109.41-30.88-35.35-8.39-70.11-23.46-109.99-19.27,6.49,14.98,16.3,19.78,26.01,22.02,45.39,10.44,85.31,32.26,123.53,57.68,13.9,9.25,27,15.69,44.72,19.59,41.33,9.09,83.62,27.79,110.23,59.96,36.34,43.93,78.99,69.23,133.86,78.88-2.91,26.65,19.14,37.01,36.79,41.26,26.55,6.39,46.28,24.22,70.7,34.06,51.63,20.8,97.09,56.87,148.67,77.86,38.84,15.8,61.82,59.72,109.53,57.81,6.15-.25,15.67,8.65,7.08,17.85-10.6,11.36-2.25,16.92,5.96,20.84,9.38,4.47,18.16-.58,24.68-7.52,7.68-8.17,6.67-20.64-1.15-24.49-33.24-16.37-46.72-54.12-76.61-71.45-38.04-22.06-51.75-64.6-87.41-89.68-29.57-20.79-49.68-55.55-87.33-67.31-27.74-8.67-51.91-24.12-75.84-39.76-89.93-58.75-184.24-108.04-294.03-137.46M1404.59,4332.31c2.02,38.09,15.46,74.83,13.38,113.41-1.55,28.82,14.79,52.76,22.78,78.87,5.2,17,22.64,25.65,38.9,16.26,16.2-9.35,11.3-26.49,2.04-39.19-18.38-25.2-25.2-50.64-9.11-79.62,2.53-4.55,3.71-12.14,1.68-16.57-16.02-34.88-9.88-74.03-17.63-107.88-17.05-74.53-26.57-152.02-57.88-223.18-5.05-11.47-12.38-23.69-12.13-35.43,1.12-52.63-8.17-104.32-12.09-156.44-7.03-93.59-1.84-187.14-3.05-280.69-.59-46.02,13.41-91.44,11.13-136.24-2.79-54.78,22.32-104.13,18.6-160.16-2.02-30.38,12.33-71.71,23.21-103.32,15.31-44.49,12.5-93.25,35.3-134.14,19.16-34.36,6.83-71,18.5-107.02-41.27,8.34-54.43,29.19-39.98,58.95,6.62,13.63,5.34,24.87-4.51,34.54-33.15,32.52-30.93,79.92-50.15,118.42-6.99,14-.98,31.44,9.99,45.13,10.31,12.87,9,29.55-2.58,37.31-27.31,18.28-24.59,50.35-39.55,71.65,1.21,14.65,21.58,13.86,17.57,31.72-30.09,13.41-19.59,32.96-4.96,54.14,17.47,25.29-29.91,35.12-15.46,60.43,1.7,2.97,3.67,6.27,3.89,9.53,2.08,30.71,15.25,67.2,3.28,90.97-26.11,51.84-.5,103.37-11.91,154-5.4,23.95-8.34,53.49.89,74.7,23.91,54.91,5.64,112.25,17.47,167.42,8.91,41.55-1.87,83.55-5.19,125.39-6.46,81.42,24.94,155.88,47.56,237.03M3258.56,5566.77c75.9,15.57,151.85,30.68,230.33,20.63-163.22-44.57-329.09-73.92-489.15-133.72-161.76-60.44-293.04-169.47-450.39-251.47,4.7,13.24,4.98,17.09,7.03,19.27,7.08,7.48,14.7,14.46,22.25,21.49,109.46,102,242.85,164.77,376.61,225.69,95.2,43.36,196.32,71.14,303.31,98.11M1646.42,4577.48c4.55,53.09,24.02,100.52,50.35,146.63,34.83,60.99,69.42,121.75,117.57,174.03-69.82-155.84-114.34-319.36-154.78-491.88-7,60.8,3.91,114.5-13.14,171.22M5690.27,1775.94c-31.79-28.04-69.15-54.1-83.92-93.84-20.07-54.02-80.2-56.14-106.81-99.07,2.89,33.67,11.94,60.66,40.79,79.97,29.86,19.99,59.29,41.3,78.08,74.86,8.92,15.94,18.98,38.11,39.18,41.12,20.64,3.07,27.13,16.55,33.45,30.57,12.33-.56,22.02-3.16,22.42-14.32.4-11.13-10.25-13.82-23.2-19.29M4100.46,1350.15c10.96-9.62,34.05-4.03,34.79-32.33-53.18-8.56-104.74.18-156.59,9.23,35.98,28.32,79.3,11.74,121.8,23.09M5854.03,4664.91c-1.53-16.88,2.98-30.25,16.69-42.24,14.42-12.61,20.01-29.49,8.17-48.48-31.43,19.91-59.59,39.45-59.39,80.77.05,10.9-8.36,23.26,5.29,30.29,15.21,7.83,22.91-2.75,29.24-20.35M1254.65,2884.05c-4.63-29.77-10-59.55,1.04-89.97-17,60.95-50.65,116.19-59.48,180.21,36.32,3.42,47.08-12.26,33.8-36.08-16.98-30.47-1.45-41.01,24.64-54.15M4486.89,1328.1c-20.76-4.68-40.55-15.89-62.2-10.97-3.67,6.9-5.36,13.8-.97,17.61,18.72,16.18,42.87,21.24,65.86,25.29,9.4,1.66,19.65-13.41,32.75-14.94,1.74-.2,3.84-7.74,3.6-11.75-.32-5.26-5.37-7.54-10.11-7.23-7.94.52-15.81,2.08-28.93,2M4612.94,1381.82c3.69,2.63,7.31,5.37,11.08,7.89,10.83,7.23,22.82,13.52,33.65,2.13,13.62-14.31-2.61-20.72-9.51-30.05-19.39-26.21-46.61-19.95-76.57-21.69,14.52,15.2,25.88,27.09,41.35,41.72M1123.36,3463.41c-1.2-6.6-1.07-14.53-15.34-10.87,10.76,37.11-5.77,76.08,8.67,114.9,5.64-22.08,18.43-35.7,40.43-38.17-10.85-23.18-28.94-38.56-33.76-65.86M6119.73,3021.35c9.84-2.12,24.22,10,28.91-7.62,3.15-11.85-1.48-26.76-12.12-29.08-15.68-3.42-19.3-29.66-39.74-19.36-3.12,1.57-6.58,8.01-5.73,11.01,4.69,16.46.06,38.26,28.68,45.05M1301.69,2730.48c7.88-16.45,15.79-32.9,23.63-49.37,3.35-7.03,2.69-13.15-4.19-17.89-7.57-5.21-11.74-.75-17.22,4.43-22.21,21-27.29,48.42-33.02,85.33,9.27-16.02,19.74-14.57,30.79-22.51M1517.46,4633.12c12.02-38.34-29.44-31.38-40.15-53.55-16.8,22.44-9.82,38.74,4.81,51.72,8.51,7.55,18.65,25.45,35.34,1.83M4748.99,1412.79c17.27,7.68,27.87,22.81,40.12,36.05,6.58,7.12,13.26,12.86,23.41,6.5,6.42-4.02,10.02-9.34,6.46-17.03-3.56-7.69-3.65-18.67-16.96-17.2-18.11,2.01-32.86-3.55-45.27-17.89-4.4-5.09-9.88.1-7.75,9.57M6081.8,2813.37c-5.86-7.03-5.92-20.13-21.46-19.32,3.45,16.04,6.59,31.32,10.07,46.51,1.69,7.39,6.21,12.9,14.32,10.88,7.68-1.91,10.85-8.73,8.67-16.02-1.9-6.36-6.04-12.06-11.59-22.05M4183.4,1328.69c-7.31-2.18-16.72-8.42-18.81,4.74-1.56,9.81-2.51,21.48,8.69,27.6,7.48,4.09,16.56,4.53,22.42-2.1,11.32-12.79.37-20.37-12.29-30.24M6091.42,2889.91c-25.86,13.6-5.81,29.22-4.82,47.54,28.36-14.23,26.36-28.7,4.82-47.54M1188.25,3050.72c10.66,3.2,17.86.4,18.42-11.71.55-11.99,1.69-24.74-15.87-29.08-5.58,12.6-11.71,24.33-2.55,40.79M5927.58,3522.56c5.45,22.73,10.9,45.47,16.36,68.2,1.72-15.96,1.48-31.48-1.49-46.46-2.98-15.08-8.68-29.62-15.17-50.91,0,13.03,0,18.68.3,29.16M1361.33,2533.82c-10.21,13.22-17.08,27.79-22.45,49.3q31.42-33.76,22.45-49.3M5804.53,4767.68c7.28-8.71,12.68-18.04,10.17-32.68-17.36,11.46-27.48,25.36-34.26,50.45,10.67-7.52,15.87-11.18,24.09-17.77M1623.97,2552.09c14.01,2.89,20.66-3.83,22.77-16.98q-32.41-7.69-22.77,16.98Z"/>
  <path d="M1067.05,3810.74c9.84-11.87,20.14-27.08,33.8-16.92,14.29,10.63,15.46,28.83,5.97,47.56-18.64-2.61-34.13-8.38-39.76-30.64Z"/>
  <path d="M1082.87,3173.12c-9.64-10.48-7.57-19.6,3.66-24.51,9.04-3.95,17.53.88,23.89,8,5.08,5.69,5.35,12.14.87,18.4-9.72,13.58-17.57-4.23-28.42-1.9Z"/>
  <path d="M2187.11,5233.05c52.44,18.76,76.72,64.81,107.8,101.83,124.45,148.25,275.51,261.53,446.48,349.88,11.43,5.91,11.59,5.61,23.65,28.49-259.93-103.71-455.86-278.16-615.68-498.59,11.82,5.81,23.65,11.62,37.75,18.39Z"/>
  <path d="M1935.57,5444.27c6.97-15.98,21.21-10.09,38.93-18.17-11.06,21.57-.87,37.19-3.57,55.52-21.11-4.92-27.05-21.12-35.36-37.35Z"/>
  <path d="M6211.21,4115.3c5.26,13.76,6.58,25.64.08,38.05-23.53-20.8-23.55-25.24-.08-38.05Z"/>
  <path d="M5965.37,3108.64c14.48,15.57,17.77,29.12-3.15,38.93-14.59,6.84-17,23.33-29.59,36.13-11.58-25.93-16.63-51.09-33.44-71.89-14.76-18.26-2.88-34.07,21.41-34.97,15.12-.56,29.81,12.61,44.21.28,13.02,10.86,8.68,20.39.56,31.53Z"/>
  <path d="M5961.3,3213.94c4.57-7.2,7.46-17.88,14.89-12.98,15.84,10.44,16.29,29.23,17.13,46.07.68,13.61-6.91,24.17-20.06,29.05-11,4.08-18.33-1.5-20.25-11.98-3.07-16.75-23.29-36.47,8.29-50.17Z"/>
  <path d="M5883.71,3055.89c-3.97-10.93-6.92-20.54,5.42-24.3,7.21-2.19,13.18,2.19,16.49,8.85,3.61,7.26,6.81,15.7-.25,21.94-7.63,6.76-14.57,1.32-21.67-6.49Z"/>
  </g>
</svg>
